#!OML:ASF X:\für Bonn\!DataBase\2005_08_12_Daniel\c3d\Daniel.ASF
:FULLY-SPECIFIED
:DEGREES
1
root -3.80822 16.8975 -3.21223 331.005 -75.7476 -341.233
lowerback 16.5608 -0.587753 -1.9124
upperback 7.08542 -1.6775 -5.43527
thorax -1.84376 -0.981277 -4.35251
lowerneck 1.79764 3.60239 -0.00200017
upperneck 20.3668 4.0739 1.36877
head 5.82866 1.82249 0.586421
rclavicle 2.78299e-014 5.00937e-014
rhumerus 10.6178 11.9475 -72.1888
rradius 116.988
rwrist -19.4348
rhand -19.7169 38.1723
rfingers 7.12502
rthumb 6.61315 8.29561
lclavicle 2.78299e-014 5.00937e-014
lhumerus -7.37287 -9.28081 83.3438
lradius 101.007
lwrist 38.7693
lhand -14.8456 -9.3112
lfingers 7.12502
lthumb 11.3136 20.3637
rfemur 3.70385 24.4189 25.7486
rtibia 33.5871
rfoot -47.2123 -22.5403
rtoes -0.521023
lfemur -20.8186 -10.9099 -21.1236
ltibia 51.108
lfoot -10.1011 -0.142266
ltoes -3.11271
2
root -3.8292 16.8941 -3.15235 331.903 -75.9798 -341.772
lowerback 15.9307 -1.01857 -1.91776
upperback 6.947 -2.19474 -5.29354
thorax -1.68681 -1.23351 -4.11112
lowerneck 1.84779 3.97003 -0.0514572
upperneck 20.4306 4.58705 1.21871
head 5.84023 2.05137 0.56877
rclavicle -2.90226e-014 -3.89618e-014
rhumerus 9.6012 12.6129 -71.1712
rradius 116.492
rwrist -19.0757
rhand -20.0531 38.215
rfingers 7.12502
rthumb 6.28854 8.32831
lclavicle -2.90226e-014 -3.89618e-014
lhumerus -6.21992 -9.25319 83.0738
lradius 101.536
lwrist 38.9412
lhand -14.8319 -9.60892
lfingers 7.12502
lthumb 11.3269 20.0652
rfemur 3.33839 24.6863 25.7038
rtibia 33.6935
rfoot -47.3439 -22.6724
rtoes -0.99468
lfemur -20.0146 -11.1391 -21.1671
ltibia 49.9529
lfoot -12.1279 -0.144713
ltoes -2.00552
3
root -3.8509 16.8902 -3.09023 332.748 -76.1474 -342.349
lowerback 15.4038 -1.46292 -1.92591
upperback 6.83996 -2.73856 -5.15299
thorax -1.54739 -1.50041 -3.8722
lowerneck 1.88666 4.33386 -0.0755811
upperneck 20.5045 5.09446 1.06476
head 5.85849 2.27879 0.545786
rclavicle -1.49089e-014 -1.90833e-014
rhumerus 8.56668 13.355 -70.0981
rradius 116.045
rwrist -18.8507
rhand -20.2937 38.1099
rfingers 7.12502
rthumb 6.05623 8.21644
lclavicle -1.49089e-014 -1.90833e-014
lhumerus -4.99803 -9.2319 82.7527
lradius 102.095
lwrist 39.0794
lhand -14.9079 -9.76454
lfingers 7.12502
lthumb 11.2536 19.9136
rfemur 3.05557 24.6543 25.5682
rtibia 33.7591
rfoot -47.2055 -22.8471
rtoes -1.63258
lfemur -19.1699 -11.2731 -21.2654
ltibia 48.878
lfoot -13.8962 -0.131828
ltoes -0.911244
4
root -3.87357 16.8847 -3.02676 333.597 -76.261 -343.004
lowerback 14.9458 -1.94143 -1.90782
upperback 6.77663 -3.331 -5.03764
thorax -1.39888 -1.7925 -3.67386
lowerneck 1.88267 4.7047 -0.101478
upperneck 20.5606 5.60842 0.942266
head 5.87813 2.51198 0.534165
rclavicle 1.23246e-014 4.85035e-014
rhumerus 7.46945 14.2225 -68.9739
rradius 115.693
rwrist -18.6829
rhand -20.5738 37.845
rfingers 7.12502
rthumb 5.78583 7.94395
lclavicle 1.23246e-014 4.85035e-014
lhumerus -3.66793 -9.16641 82.3049
lradius 102.622
lwrist 39.3009
lhand -14.9827 -9.8843
lfingers 7.12502
lthumb 11.1814 19.7978
rfemur 2.85294 24.4658 25.405
rtibia 33.8104
rfoot -46.9979 -22.9508
rtoes -2.28883
lfemur -18.3299 -11.3362 -21.3962
ltibia 47.9041
lfoot -15.4467 -0.0617307
ltoes -0.382417
5
root -3.89675 16.8797 -2.96362 334.476 -76.3229 -343.734
lowerback 14.5528 -2.42185 -1.93161
upperback 6.71993 -3.93496 -4.89017
thorax -1.26991 -2.09172 -3.42134
lowerneck 1.87617 5.0585 -0.092216
upperneck 20.6614 6.10455 0.769152
head 5.91601 2.73437 0.50102
rclavicle 2.50469e-014 -1.11319e-014
rhumerus 6.20632 15.1907 -67.7938
rradius 115.418
rwrist -18.526
rhand -20.8033 37.5011
rfingers 7.12502
rthumb 5.56422 7.59416
lclavicle 2.50469e-014 -1.11319e-014
lhumerus -2.34209 -9.07399 81.8754
lradius 103.215
lwrist 39.5026
lhand -15.1208 -9.92335
lfingers 7.12502
lthumb 11.0483 19.7659
rfemur 2.66505 24.0291 25.1696
rtibia 33.8532
rfoot -46.6131 -22.9876
rtoes -3.10249
lfemur -17.5302 -11.3633 -21.5263
ltibia 47.019
lfoot -16.8252 -0.0433028
ltoes 0.135812
6
root -3.91912 16.877 -2.90043 335.299 -76.3212 -344.444
lowerback 14.2505 -2.90686 -2.03537
upperback 6.66807 -4.55982 -4.71145
thorax -1.17142 -2.4035 -3.09062
lowerneck 1.91184 5.40226 -0.0618142
upperneck 20.7288 6.59607 0.537985
head 5.94022 2.95245 0.444676
rclavicle -1.68967e-014 5.1684e-014
rhumerus 4.82989 16.2565 -66.6045
rradius 115.21
rwrist -18.4474
rhand -20.8685 37.0928
rfingers 7.12502
rthumb 5.50129 7.18418
lclavicle -1.68967e-014 5.1684e-014
lhumerus -0.989299 -8.94572 81.4581
lradius 103.812
lwrist 39.7332
lhand -15.3017 -9.81997
lfingers 7.12502
lthumb 10.8738 19.8785
rfemur 2.5037 23.3694 24.8473
rtibia 33.8586
rfoot -46.0008 -23.0228
rtoes -4.03342
lfemur -16.7939 -11.3132 -21.6848
ltibia 46.208
lfoot -17.93 -0.0360846
ltoes 0.461216
7
root -3.94138 16.8803 -2.83564 336.072 -76.2653 -345.132
lowerback 13.9957 -3.4012 -2.18017
upperback 6.63945 -5.20572 -4.53934
thorax -1.064 -2.7275 -2.74555
lowerneck 1.94601 5.71699 0.0979761
upperneck 20.7754 7.05844 0.222008
head 5.96774 3.16078 0.339501
rclavicle 3.06128e-014 1.59028e-014
rhumerus 3.3406 17.3446 -65.4838
rradius 115.056
rwrist -18.3175
rhand -20.8089 36.6029
rfingers 7.12502
rthumb 5.55883 6.69586
lclavicle 3.06128e-014 1.59028e-014
lhumerus 0.367442 -8.77759 81.0208
lradius 104.491
lwrist 39.907
lhand -15.5151 -9.67451
lfingers 7.12502
lthumb 10.6679 20.0347
rfemur 2.34148 22.2936 24.3443
rtibia 33.8093
rfoot -45.0696 -22.8251
rtoes -5.02188
lfemur -16.1029 -11.2908 -21.8736
ltibia 45.4317
lfoot -18.8424 0.00809161
ltoes 0.646032
8
root -3.96342 16.8912 -2.76914 336.829 -76.1767 -345.834
lowerback 13.8122 -3.89572 -2.35775
upperback 6.61411 -5.85941 -4.35344
thorax -0.978305 -3.05653 -2.36841
lowerneck 2.00017 6.01607 0.326934
upperneck 20.8361 7.504 -0.143459
head 6.00348 3.36199 0.206917
rclavicle -8.54774e-015 -1.90833e-014
rhumerus 1.7406 18.4783 -64.45
rradius 114.901
rwrist -18.1644
rhand -20.5841 36.1638
rfingers 7.12502
rthumb 5.7759 6.26255
lclavicle -8.54774e-015 -1.90833e-014
lhumerus 1.65819 -8.58366 80.6349
lradius 105.207
lwrist 40.0341
lhand -15.7801 -9.59437
lfingers 7.12502
lthumb 10.4123 20.1278
rfemur 2.16053 20.6204 23.6175
rtibia 33.6799
rfoot -43.6123 -22.3383
rtoes -6.12742
lfemur -15.4812 -11.2664 -22.058
ltibia 44.698
lfoot -19.4941 0.0235277
ltoes 0.751047
9
root -3.98433 16.9092 -2.70099 337.56 -76.0397 -346.546
lowerback 13.7005 -4.40051 -2.56204
upperback 6.59832 -6.53346 -4.15508
thorax -0.907348 -3.39686 -1.96128
lowerneck 2.14066 6.30033 0.577292
upperneck 20.8313 7.93378 -0.545715
head 6.00894 3.5561 0.0551995
rclavicle 1.47101e-014 4.45278e-014
rhumerus 0.0779986 19.6034 -63.5058
rradius 114.67
rwrist -17.9112
rhand -20.2252 35.8325
rfingers 7.12502
rthumb 6.12243 5.94101
lclavicle 1.47101e-014 4.45278e-014
lhumerus 2.89496 -8.32341 80.3071
lradius 105.953
lwrist 40.0868
lhand -16.0339 -9.58825
lfingers 7.12502
lthumb 10.1675 20.1461
rfemur 1.99239 18.4015 22.6937
rtibia 33.4807
rfoot -41.7121 -21.5253
rtoes -7.39138
lfemur -14.9248 -11.2693 -22.2554
ltibia 44.0207
lfoot -19.9454 0.0729347
ltoes 0.688174
10
root -4.0041 16.9281 -2.63132 338.211 -75.8806 -347.209
lowerback 13.6446 -4.90563 -2.76236
upperback 6.59891 -7.21201 -3.98107
thorax -0.84186 -3.74015 -1.5819
lowerneck 2.32415 6.56575 0.878711
upperneck 20.7927 8.33887 -0.967221
head 6.00212 3.74187 -0.113619
rclavicle 5.08889e-014 -1.59028e-015
rhumerus -1.6756 20.6874 -62.7746
rradius 114.287
rwrist -17.5404
rhand -19.796 35.7826
rfingers 7.12502
rthumb 6.5368 5.90343
lclavicle 5.08889e-014 -1.59028e-015
lhumerus 4.14717 -7.93796 80.1542
lradius 106.586
lwrist 39.9283
lhand -16.1194 -9.6948
lfingers 7.12502
lthumb 10.0849 20.0435
rfemur 1.85608 15.9715 21.6745
rtibia 33.2606
rfoot -39.733 -20.3659
rtoes -8.34541
lfemur -14.45 -11.2893 -22.4616
ltibia 43.4715
lfoot -20.2865 0.0675414
ltoes 0.731772
11
root -4.02074 16.9431 -2.56097 338.857 -75.6938 -347.873
lowerback 13.6343 -5.42382 -2.96392
upperback 6.60177 -7.91011 -3.79302
thorax -0.786191 -4.09364 -1.18468
lowerneck 2.51943 6.82564 1.09381
upperneck 20.7419 8.73474 -1.364
head 5.98708 3.91904 -0.261769
rclavicle -9.20373e-014 1.51076e-014
rhumerus -3.48615 21.743 -62.205
rradius 113.722
rwrist -17.1057
rhand -19.3366 36.0048
rfingers 7.12502
rthumb 6.98028 6.13987
lclavicle -9.20373e-014 1.51076e-014
lhumerus 5.4412 -7.35939 80.2181
lradius 107.139
lwrist 39.665
lhand -15.9481 -9.91136
lfingers 7.12502
lthumb 10.2502 19.8189
rfemur 1.72234 13.5287 20.6439
rtibia 33.0588
rfoot -37.7535 -19.0183
rtoes -9.16665
lfemur -14.0956 -11.3373 -22.6624
ltibia 43.0687
lfoot -20.5727 0.0411035
ltoes 0.702223
12
root -4.03342 16.9478 -2.49157 339.415 -75.4575 -348.501
lowerback 13.7126 -5.94483 -3.17937
upperback 6.62929 -8.61957 -3.61415
thorax -0.740259 -4.45424 -0.783769
lowerneck 2.80046 7.06924 1.31447
upperneck 20.6214 9.11205 -1.79507
head 5.93957 4.08799 -0.426596
rclavicle 8.22969e-014 -1.11319e-014
rhumerus -5.39053 22.7345 -61.8325
rradius 112.993
rwrist -16.5548
rhand -18.9701 36.4949
rfingers 7.12502
rthumb 7.33403 6.64205
lclavicle 8.22969e-014 -1.11319e-014
lhumerus 6.74654 -6.8087 80.3297
lradius 107.697
lwrist 39.3841
lhand -15.777 -10.2396
lfingers 7.12502
lthumb 10.4153 19.4824
rfemur 1.64591 11.2696 19.6845
rtibia 32.9544
rfoot -36.0085 -17.6207
rtoes -9.62487
lfemur -13.836 -11.4139 -22.8813
ltibia 42.8354
lfoot -20.7751 -0.0125562
ltoes 0.866273
